<?xml version="1.0" standalone="no"?>
<!DOCTYPE svg PUBLIC "-//W3C//DTD SVG 20010904//EN"
 "http://www.w3.org/TR/2001/REC-SVG-20010904/DTD/svg10.dtd">
<svg version="1.0" xmlns="http://www.w3.org/2000/svg"
 width="150.000000pt" height="150.000000pt" viewBox="0 0 150.000000 150.000000"
 preserveAspectRatio="xMidYMid meet">
<metadata>
Created by potrace 1.16, written by Peter Selinger 2001-2019
</metadata>
<g transform="translate(0.000000,150.000000) scale(0.100000,-0.100000)"
fill="#000000" stroke="none">
<path d="M750 1473 c0 -38 -38 -97 -130 -205 -99 -115 -125 -164 -125 -238 1
-123 99 -218 189 -184 14 5 11 12 -13 40 -124 141 89 364 348 364 26 0 73 -5
105 -11 32 -6 60 -9 62 -7 8 9 -81 89 -121 108 -23 11 -69 24 -101 28 -58 7
-59 7 -65 45 -9 58 -43 87 -101 87 -45 0 -48 -1 -48 -27z"/>
<path d="M479 1334 c-52 -15 -141 -89 -165 -135 -12 -24 -18 -28 -34 -19 -27
15 -106 12 -138 -4 -27 -14 -69 -54 -61 -59 2 -1 18 -9 34 -18 47 -26 87 -94
134 -228 50 -142 87 -196 154 -230 63 -31 146 -33 185 -4 29 21 70 88 61 98
-4 3 -18 1 -32 -6 -62 -28 -143 15 -183 98 -26 52 -29 68 -29 158 1 79 5 112
23 156 25 63 72 137 108 171 43 41 25 48 -57 22z"/>
<path d="M889 1140 c-21 -11 -53 -38 -73 -61 -55 -65 -59 -128 -14 -192 l21
-30 13 42 c16 54 30 70 83 94 87 38 227 -7 327 -107 53 -54 134 -197 134 -238
0 -35 19 -17 35 33 21 63 16 143 -14 213 l-21 48 25 20 c14 11 32 33 40 48 15
28 21 131 9 143 -3 3 -22 -4 -42 -16 -48 -28 -130 -28 -269 1 -127 27 -206 28
-254 2z"/>
<path d="M961 858 c-29 -20 -76 -86 -68 -95 2 -1 18 2 37 7 102 29 193 -64
206 -211 12 -123 -35 -252 -128 -354 -47 -51 -48 -55 -26 -55 39 0 113 25 148
50 17 12 48 44 69 70 36 45 39 47 62 34 46 -25 116 -11 175 35 l25 20 -28 14
c-60 32 -86 74 -133 222 -34 105 -71 188 -99 219 -27 31 -92 58 -150 63 -47 4
-61 1 -90 -19z"/>
<path d="M139 839 c-7 -13 -14 -56 -17 -94 -4 -60 0 -81 22 -135 l26 -65 -30
-30 c-37 -38 -53 -87 -44 -140 9 -56 10 -57 51 -30 30 21 48 25 107 25 39 0
106 -7 149 -15 185 -35 280 -13 344 79 47 69 42 151 -11 195 -14 12 -16 10
-16 -11 0 -35 -38 -87 -80 -110 -27 -15 -49 -18 -100 -15 -152 10 -293 127
-360 299 -27 68 -28 70 -41 47z"/>
<path d="M848 654 c-3 -3 5 -17 18 -31 85 -91 31 -225 -124 -306 -106 -56
-229 -68 -356 -36 -21 6 -40 8 -42 6 -2 -2 14 -24 36 -49 44 -51 115 -86 191
-95 39 -5 49 -9 49 -25 0 -26 24 -80 44 -101 11 -11 33 -17 62 -17 39 0 44 3
44 23 0 36 53 117 138 209 106 115 135 164 135 233 0 104 -71 195 -153 195
-20 0 -39 -3 -42 -6z"/>
</g>
</svg>
